# Blender v2.78 (sub 0) OBJ File: '3.obj'
# www.blender.org
mtllib 3.mtl
o Cylinder
v 0.000000 -1.910666 -10.907103
v 0.000000 -1.777054 -10.907103
v 7.010954 -1.777054 -8.355321
v 7.010954 -1.910666 -8.355321
v 10.741403 -1.777055 -1.893996
v 10.741403 -1.910667 -1.893996
v 9.445824 -1.777055 5.453551
v 9.445824 -1.910667 5.453551
v 3.730447 -1.777055 10.249328
v 3.730447 -1.910667 10.249328
v -3.730447 -1.777055 10.249328
v -3.730447 -1.910667 10.249328
v -9.445824 -1.777055 5.453551
v -9.445824 -1.910667 5.453551
v -10.741403 -1.777055 -1.893996
v -10.741403 -1.910667 -1.893996
v 9.295044 -1.777055 5.366502
v 10.569942 -1.777055 -1.863762
v 10.569942 -1.613448 -1.863762
v 9.295044 -1.613448 5.366502
v -7.010954 -1.777054 -8.355321
v -7.010954 -1.910666 -8.355321
v 0.000000 -1.777054 -10.732992
v 6.899037 -1.777054 -8.221949
v 3.670895 -1.777055 10.085721
v -3.670905 -1.777055 10.085721
v -9.295044 -1.777055 5.366502
v -10.569942 -1.777055 -1.863762
v -6.899037 -1.777054 -8.221949
v 4.155126 -1.613448 -4.951879
v 0.000000 -1.613448 -6.464225
v 0.000000 -1.504377 -6.464225
v 4.155126 -1.504377 -4.951879
v -9.295044 -1.613448 5.366502
v -10.569942 -1.613448 -1.863762
v 3.670895 -1.613449 10.085721
v 0.000000 -1.613448 -10.732992
v 6.899037 -1.613448 -8.221949
v -6.899037 -1.613448 -8.221949
v -3.670905 -1.613449 10.085721
v 6.366017 -1.613448 -1.122504
v 5.598179 -1.613448 3.232113
v 2.210891 -1.613448 6.074383
v -2.210891 -1.613448 6.074383
v -5.598179 -1.613448 3.232113
v -6.366017 -1.613448 -1.122504
v -4.155126 -1.613448 -4.951879
v 2.052095 -1.504377 5.638099
v 5.196100 -1.504377 2.999966
v 5.196100 -1.395306 2.999966
v 2.052095 -1.395306 5.638099
v -6.366017 -1.504377 -1.122504
v -4.155126 -1.504377 -4.951879
v 2.210891 -1.504377 6.074383
v -2.210891 -1.504377 6.074383
v 6.366017 -1.504377 -1.122504
v -5.598179 -1.504377 3.232113
v 5.598179 -1.504377 3.232113
v 0.000000 -1.504377 -5.999943
v 3.856686 -1.504377 -4.596220
v 5.908792 -1.504377 -1.041879
v -2.052106 -1.504377 5.638099
v -5.196100 -1.504377 2.999966
v -5.908792 -1.504377 -1.041879
v -3.856686 -1.504377 -4.596220
v 5.451555 -1.395306 -0.961254
v 3.558257 -1.395306 -4.240561
v 3.558257 -1.286235 -4.240561
v 5.451555 -1.286235 -0.961254
v 0.000000 -1.395306 -5.999943
v 3.856686 -1.395306 -4.596220
v -5.908792 -1.395306 -1.041879
v -3.856686 -1.395306 -4.596220
v -2.052106 -1.395306 5.638099
v 5.908792 -1.395306 -1.041879
v -5.196100 -1.395306 2.999966
v 0.000000 -1.395306 -5.535660
v 4.794021 -1.395306 2.767830
v 1.893309 -1.395306 5.201816
v -1.893309 -1.395306 5.201816
v -4.794021 -1.395306 2.767830
v -5.451555 -1.395306 -0.961254
v -3.558257 -1.395306 -4.240561
v -4.994329 -1.286235 -0.880639
v -4.391941 -1.286235 2.535683
v -4.391941 -1.177164 2.535683
v -4.994329 -1.177164 -0.880639
v -3.558257 -1.286235 -4.240561
v 0.000000 -1.286234 -5.535660
v -1.893309 -1.286235 5.201816
v -4.794021 -1.286235 2.767830
v 4.794021 -1.286235 2.767830
v -5.451555 -1.286235 -0.961254
v 1.893309 -1.286235 5.201816
v 0.000000 -1.286235 -5.071366
v 3.259817 -1.286235 -3.884892
v 4.994329 -1.286235 -0.880639
v 4.391941 -1.286235 2.535683
v 1.734513 -1.286235 4.765531
v -1.734513 -1.286235 4.765531
v -3.259817 -1.286235 -3.884892
v 3.259817 -1.177164 -3.884892
v 0.000000 -1.177164 -5.071366
v -3.259817 -1.177164 -3.884892
v -1.734513 -1.177164 4.765531
v 1.734513 -1.177164 4.765531
v 4.391941 -1.177164 2.535683
v 4.994329 -1.177164 -0.880639
vt 0.9929 0.8025
vt 0.9929 0.8098
vt 0.6961 0.8098
vt 0.6961 0.8025
vt 0.3086 0.8098
vt 0.3086 0.8025
vt 0.0117 0.8098
vt 0.0117 0.8025
vt 0.0117 0.8171
vt 0.3086 0.8098
vt 0.3086 0.8171
vt 0.6961 0.8098
vt 0.6961 0.8171
vt 0.9929 0.8098
vt 0.9929 0.8171
vt 0.9929 0.8244
vt 0.6961 0.8244
vt 0.6961 0.8171
vt 0.0117 0.8334
vt 0.3038 0.8334
vt 0.3038 0.8423
vt 0.0117 0.8423
vt 0.3086 0.8244
vt 0.3086 0.8171
vt 0.0117 0.8244
vt 0.0117 0.8171
vt 0.4970 0.7611
vt 0.5875 0.7282
vt 0.6356 0.6448
vt 0.6189 0.5500
vt 0.5452 0.4882
vt 0.4489 0.4882
vt 0.3752 0.5500
vt 0.3585 0.6448
vt 0.4066 0.7282
vt 0.0640 0.3991
vt 0.2154 0.4821
vt 0.2147 0.4860
vt 0.0608 0.4016
vt 0.3877 0.4533
vt 0.3898 0.4567
vt 0.5001 0.3260
vt 0.5040 0.3274
vt 0.5001 0.1600
vt 0.5040 0.1586
vt 0.3877 0.0327
vt 0.3898 0.0293
vt 0.2154 0.0039
vt 0.2147 0.0000
vt 0.0640 0.0869
vt 0.0608 0.0844
vt 0.0041 0.2430
vt 0.0000 0.2430
vt 0.6940 0.9717
vt 0.9888 0.9717
vt 0.9888 0.9817
vt 0.6940 0.9817
vt 0.3038 0.8334
vt 0.0117 0.8334
vt 0.0117 0.8244
vt 0.3038 0.8244
vt 0.3038 0.8513
vt 0.0117 0.8513
vt 0.3038 0.8423
vt 0.6851 0.8334
vt 0.9773 0.8334
vt 0.9773 0.8423
vt 0.6851 0.8423
vt 0.6851 0.8334
vt 0.6851 0.8244
vt 0.6851 0.8513
vt 0.6851 0.8423
vt 0.9773 0.8244
vt 0.9773 0.8513
vt 0.9773 0.8423
vt 0.9044 0.1891
vt 0.8367 0.1125
vt 0.8876 0.0288
vt 1.0000 0.1561
vt 0.7330 0.0951
vt 0.7153 0.0000
vt 0.6417 0.1451
vt 0.5638 0.0830
vt 0.6057 0.2391
vt 0.5040 0.2391
vt 0.6417 0.3331
vt 0.5638 0.3952
vt 0.7330 0.3831
vt 0.7153 0.4782
vt 0.8367 0.3658
vt 0.8876 0.4494
vt 0.9044 0.2891
vt 1.0000 0.3222
vt 0.2880 0.9617
vt 0.0144 0.9617
vt 0.0144 0.9517
vt 0.2880 0.9517
vt 0.3092 0.9617
vt 0.6940 0.9617
vt 0.6940 0.9717
vt 0.3092 0.9717
vt 0.3092 0.9817
vt 0.6940 0.9817
vt 0.6940 0.9917
vt 0.3092 0.9917
vt 0.3092 0.9717
vt 0.3092 0.9817
vt 0.0144 0.9617
vt 0.0144 0.9717
vt 0.0144 0.9817
vt 0.0144 0.9917
vt 0.0144 0.9717
vt 0.0144 0.9817
vt 0.9888 0.9617
vt 0.9888 0.9717
vt 0.9888 0.9817
vt 0.9888 0.9917
vt 0.5804 0.4833
vt 0.4701 0.4649
vt 0.4679 0.4530
vt 0.5867 0.4729
vt 0.3732 0.5180
vt 0.3635 0.5103
vt 0.3349 0.6179
vt 0.3222 0.6179
vt 0.3732 0.7178
vt 0.3635 0.7255
vt 0.4701 0.7709
vt 0.4679 0.7828
vt 0.5804 0.7525
vt 0.5867 0.7629
vt 0.6523 0.6710
vt 0.6642 0.6752
vt 0.6523 0.5647
vt 0.6642 0.5606
vt 0.2669 0.9117
vt 0.5964 0.9117
vt 0.5964 0.9217
vt 0.2669 0.9217
vt 0.6452 0.9317
vt 0.9188 0.9317
vt 0.9188 0.9417
vt 0.6452 0.9417
vt 0.2880 0.9417
vt 0.6452 0.9417
vt 0.6452 0.9517
vt 0.2880 0.9517
vt 0.6452 0.9617
vt 0.6452 0.9517
vt 0.2880 0.9317
vt 0.2880 0.9417
vt 0.0144 0.9417
vt 0.0144 0.9517
vt 0.9188 0.9617
vt 0.9188 0.9517
vt 0.0144 0.9317
vt 0.0144 0.9417
vt 0.9188 0.9417
vt 0.6814 0.6351
vt 0.7165 0.7267
vt 0.7069 0.7343
vt 0.6688 0.6351
vt 0.8054 0.7754
vt 0.8032 0.7872
vt 0.9065 0.7585
vt 0.9127 0.7688
vt 0.9724 0.6838
vt 0.9842 0.6879
vt 0.9724 0.5864
vt 0.9842 0.5823
vt 0.9065 0.5117
vt 0.9127 0.5014
vt 0.8054 0.4948
vt 0.8032 0.4830
vt 0.7165 0.5435
vt 0.7069 0.5358
vt 0.2457 0.8817
vt 0.0144 0.8817
vt 0.0144 0.8717
vt 0.2457 0.8717
vt 0.0144 0.9217
vt 0.2669 0.9217
vt 0.2669 0.9317
vt 0.0144 0.9317
vt 0.0144 0.9017
vt 0.2669 0.9017
vt 0.2669 0.9117
vt 0.0144 0.9117
vt 0.0144 0.9117
vt 0.0144 0.9217
vt 0.5964 0.9217
vt 0.8488 0.9217
vt 0.8488 0.9317
vt 0.5964 0.9317
vt 0.5964 0.9017
vt 0.8488 0.9017
vt 0.8488 0.9117
vt 0.5964 0.9117
vt 0.8488 0.9117
vt 0.8488 0.9217
vt 0.2996 0.6826
vt 0.2996 0.5886
vt 0.3120 0.5843
vt 0.3120 0.6869
vt 0.2359 0.5165
vt 0.2425 0.5056
vt 0.1383 0.5002
vt 0.1360 0.4878
vt 0.0526 0.5472
vt 0.0424 0.5391
vt 0.0187 0.6356
vt 0.0054 0.6356
vt 0.0526 0.7240
vt 0.0424 0.7321
vt 0.1383 0.7710
vt 0.1360 0.7834
vt 0.2359 0.7547
vt 0.2425 0.7656
vt 0.2602 0.4673
vt 0.4042 0.4149
vt 0.4808 0.2822
vt 0.4542 0.1313
vt 0.3368 0.0328
vt 0.1835 0.0328
vt 0.0661 0.1313
vt 0.0395 0.2822
vt 0.1162 0.4149
vt 0.2457 0.9017
vt 0.0144 0.9017
vt 0.0144 0.8917
vt 0.2457 0.8917
vt 0.2457 0.8917
vt 0.0144 0.8917
vt 0.0144 0.8817
vt 0.2457 0.8817
vt 0.5476 0.8817
vt 0.5476 0.8717
vt 0.5476 0.9017
vt 0.5476 0.8917
vt 0.5476 0.8917
vt 0.5476 0.8817
vt 0.7788 0.8817
vt 0.7788 0.8717
vt 0.7788 0.9017
vt 0.7788 0.8917
vt 0.7788 0.8917
vt 0.7788 0.8817
vn 0.3420 0.0000 -0.9397
vn 0.8660 0.0000 -0.5000
vn 0.9848 0.0000 0.1736
vn 0.6428 0.0000 0.7660
vn 0.0000 0.0000 1.0000
vn -0.6428 0.0000 0.7660
vn -0.9848 0.0000 0.1736
vn -0.8660 0.0000 -0.5000
vn -0.3420 0.0000 -0.9397
vn 0.0000 -1.0000 -0.0000
vn 0.0000 1.0000 -0.0000
usemtl None
s 1
f 1/1/1 2/2/1 3/3/1 4/4/1
f 4/4/2 3/3/2 5/5/2 6/6/2
f 6/6/3 5/5/3 7/7/3 8/8/3
f 8/9/4 7/7/4 9/10/4 10/11/4
f 10/11/5 9/10/5 11/12/5 12/13/5
f 12/13/6 11/12/6 13/14/6 14/15/6
f 14/15/7 13/16/7 15/17/7 16/18/7
f 17/19/3 18/20/3 19/21/3 20/22/3
f 16/18/8 15/17/8 21/23/8 22/24/8
f 22/24/9 21/23/9 2/25/9 1/26/9
f 1/27/10 4/28/10 6/29/10 8/30/10 10/31/10 12/32/10 14/33/10 16/34/10 22/35/10
f 23/36/11 24/37/11 3/38/11 2/39/11
f 24/37/11 18/40/11 5/41/11 3/38/11
f 18/40/11 17/42/11 7/43/11 5/41/11
f 17/42/11 25/44/11 9/45/11 7/43/11
f 25/44/11 26/46/11 11/47/11 9/45/11
f 26/46/11 27/48/11 13/49/11 11/47/11
f 27/48/11 28/50/11 15/51/11 13/49/11
f 28/50/11 29/52/11 21/53/11 15/51/11
f 29/52/11 23/36/11 2/39/11 21/53/11
f 30/54/1 31/55/1 32/56/1 33/57/1
f 28/58/7 27/59/7 34/60/7 35/61/7
f 25/62/4 17/63/4 20/22/4 36/64/4
f 24/65/1 23/66/1 37/67/1 38/68/1
f 29/69/8 28/58/8 35/61/8 39/70/8
f 26/71/5 25/62/5 36/64/5 40/72/5
f 18/20/2 24/65/2 38/68/2 19/21/2
f 23/66/9 29/69/9 39/70/9 37/73/9
f 27/74/6 26/71/6 40/72/6 34/75/6
f 31/76/11 30/77/11 38/78/11 37/79/11
f 30/77/11 41/80/11 19/81/11 38/78/11
f 41/80/11 42/82/11 20/83/11 19/81/11
f 42/82/11 43/84/11 36/85/11 20/83/11
f 43/84/11 44/86/11 40/87/11 36/85/11
f 44/86/11 45/88/11 34/89/11 40/87/11
f 45/88/11 46/90/11 35/91/11 34/89/11
f 46/90/11 47/92/11 39/93/11 35/91/11
f 47/92/11 31/76/11 37/79/11 39/93/11
f 48/94/4 49/95/4 50/96/4 51/97/4
f 47/98/8 46/99/8 52/100/8 53/101/8
f 44/102/5 43/103/5 54/104/5 55/105/5
f 41/106/2 30/54/2 33/57/2 56/107/2
f 31/108/9 47/98/9 53/101/9 32/109/9
f 45/110/6 44/102/6 55/105/6 57/111/6
f 42/112/3 41/106/3 56/107/3 58/113/3
f 46/99/7 45/114/7 57/115/7 52/100/7
f 43/103/4 42/116/4 58/117/4 54/104/4
f 59/118/11 60/119/11 33/120/11 32/121/11
f 60/119/11 61/122/11 56/123/11 33/120/11
f 61/122/11 49/124/11 58/125/11 56/123/11
f 49/124/11 48/126/11 54/127/11 58/125/11
f 48/126/11 62/128/11 55/129/11 54/127/11
f 62/128/11 63/130/11 57/131/11 55/129/11
f 63/130/11 64/132/11 52/133/11 57/131/11
f 64/132/11 65/134/11 53/135/11 52/133/11
f 65/134/11 59/118/11 32/121/11 53/135/11
f 66/136/2 67/137/2 68/138/2 69/139/2
f 60/140/1 59/141/1 70/142/1 71/143/1
f 65/144/8 64/145/8 72/146/8 73/147/8
f 62/148/5 48/94/5 51/97/5 74/149/5
f 61/150/2 60/140/2 71/143/2 75/151/2
f 59/152/9 65/144/9 73/147/9 70/153/9
f 63/154/6 62/148/6 74/149/6 76/155/6
f 49/156/3 61/150/3 75/151/3 50/157/3
f 64/145/7 63/158/7 76/155/7 72/146/7
f 77/159/11 67/160/11 71/161/11 70/162/11
f 67/160/11 66/163/11 75/164/11 71/161/11
f 66/163/11 78/165/11 50/166/11 75/164/11
f 78/165/11 79/167/11 51/168/11 50/166/11
f 79/167/11 80/169/11 74/170/11 51/168/11
f 80/169/11 81/171/11 76/172/11 74/170/11
f 81/171/11 82/173/11 72/174/11 76/172/11
f 82/173/11 83/175/11 73/176/11 72/174/11
f 83/175/11 77/159/11 70/162/11 73/176/11
f 84/177/7 85/178/7 86/179/7 87/180/7
f 77/181/9 83/182/9 88/183/9 89/184/9
f 81/185/6 80/186/6 90/187/6 91/188/6
f 78/189/3 66/136/3 69/139/3 92/190/3
f 82/191/7 81/192/7 91/193/7 93/194/7
f 79/195/4 78/196/4 92/197/4 94/198/4
f 67/137/1 77/199/1 89/200/1 68/138/1
f 83/182/8 82/191/8 93/194/8 88/183/8
f 80/186/5 79/195/5 94/198/5 90/187/5
f 95/201/11 96/202/11 68/203/11 89/204/11
f 96/202/11 97/205/11 69/206/11 68/203/11
f 97/205/11 98/207/11 92/208/11 69/206/11
f 98/207/11 99/209/11 94/210/11 92/208/11
f 99/209/11 100/211/11 90/212/11 94/210/11
f 100/211/11 85/213/11 91/214/11 90/212/11
f 85/213/11 84/215/11 93/216/11 91/214/11
f 84/215/11 101/217/11 88/218/11 93/216/11
f 101/217/11 95/201/11 89/204/11 88/218/11
f 102/219/11 103/220/11 104/221/11 87/222/11 86/223/11 105/224/11 106/225/11 107/226/11 108/227/11
f 99/228/4 98/229/4 107/230/4 106/231/4
f 96/232/1 95/233/1 103/234/1 102/235/1
f 101/236/8 84/177/8 87/180/8 104/237/8
f 100/238/5 99/228/5 106/231/5 105/239/5
f 97/240/2 96/232/2 102/235/2 108/241/2
f 95/242/9 101/236/9 104/237/9 103/243/9
f 85/244/6 100/238/6 105/239/6 86/245/6
f 98/246/3 97/240/3 108/241/3 107/247/3
